<svg width="652" height="1052" viewBox="0 0 652 1052" fill="none" xmlns="http://www.w3.org/2000/svg">
<path d="M536.783 261.761C533.1 261.761 529.637 260.318 527.029 257.725L518.219 248.915L518.277 248.856L510.969 241.534L510.911 241.593L495.646 226.33C493.038 223.723 491.609 220.261 491.609 216.563C491.609 212.865 493.038 209.403 495.646 206.796L510.911 191.533L510.969 191.592L518.277 184.27L518.219 184.211L527.029 175.401C529.637 172.794 533.1 171.365 536.783 171.365C540.467 171.365 543.944 172.808 546.552 175.416L552.386 181.25L552.327 181.309L559.665 188.616L559.709 188.572L577.949 206.796C580.557 209.403 581.987 212.865 581.987 216.563C581.987 220.246 580.557 223.723 577.949 226.33L559.709 244.554L559.665 244.51L552.327 251.817L552.386 251.876L546.552 257.71C543.944 260.318 540.481 261.761 536.783 261.761ZM337.611 86.3306L343.446 80.4966L343.387 80.4377L350.724 73.1305L350.768 73.1747L369.009 54.951C371.617 52.3434 373.046 48.8814 373.046 45.1836C373.046 41.5005 371.617 38.0238 369.009 35.4162L350.768 17.1925L350.724 17.2366L343.387 9.92949L343.446 9.87056L337.611 4.03662C335.003 1.44375 331.541 0 327.857 0C324.174 0 320.711 1.44375 318.104 4.03662L309.293 12.8465L309.352 12.9054L302.044 20.2273L301.985 20.1684L286.72 35.4309C284.113 38.0385 282.683 41.5005 282.683 45.1983C282.683 48.8961 284.113 52.3582 286.72 54.9658L301.985 70.2283L302.044 70.1694L309.352 77.4913L309.293 77.5502L318.104 86.36C320.711 88.9676 324.174 90.3966 327.857 90.3966C331.541 90.3966 335.018 88.9529 337.626 86.3453L337.611 86.3306ZM197.89 86.3306L203.725 80.4966L203.666 80.4377L211.003 73.1305L211.047 73.1747L229.288 54.951C231.896 52.3434 233.325 48.8814 233.325 45.1836C233.325 41.5005 231.896 38.0238 229.288 35.4162L211.047 17.1925L211.003 17.2366L203.666 9.92949L203.725 9.87056L197.89 4.03662C195.282 1.44375 191.82 0 188.136 0C184.453 0 180.99 1.44375 178.383 4.03662L169.572 12.8465L169.631 12.9054L162.323 20.2273L162.264 20.1684L146.999 35.4309C144.392 38.0385 142.962 41.5005 142.962 45.1983C142.962 48.8961 144.392 52.3582 146.999 54.9658L162.264 70.2283L162.323 70.1694L169.631 77.4913L169.572 77.5502L178.383 86.36C180.99 88.9676 184.453 90.3966 188.136 90.3966C191.82 90.3966 195.297 88.9529 197.905 86.3453L197.89 86.3306ZM337.611 200.166L343.446 194.332L343.387 194.273L350.724 186.966L350.768 187.01L369.009 168.787C371.617 166.179 373.046 162.717 373.046 159.019C373.046 155.336 371.617 151.859 369.009 149.252L350.768 131.028L350.724 131.072L343.387 123.765L343.446 123.706L337.611 117.872C335.003 115.265 331.541 113.821 327.843 113.821C324.144 113.821 320.697 115.265 318.089 117.857L309.278 126.667L309.337 126.726L302.029 134.048L301.97 133.989L286.706 149.252C284.098 151.859 282.669 155.321 282.669 159.019C282.669 162.717 284.098 166.179 286.706 168.787L301.97 184.049L302.029 183.99L309.337 191.312L309.278 191.371L318.089 200.181C320.697 202.788 324.159 204.217 327.843 204.217C331.526 204.217 335.003 202.774 337.611 200.166ZM128.685 144.537L134.52 138.703L134.461 138.645L141.798 131.337L141.843 131.382L160.083 113.158C162.691 110.55 164.12 107.088 164.12 103.39C164.12 99.7074 162.691 96.2306 160.083 93.623L141.843 75.3993L141.798 75.4435L134.461 68.1363L134.52 68.0774L128.685 62.2435C126.077 59.6359 122.615 58.1921 118.917 58.1921C115.219 58.1921 111.771 59.6359 109.163 62.2287L100.352 71.0386L100.411 71.0975L93.1031 78.4194L93.0442 78.3605L77.7799 93.623C75.172 96.2306 73.7429 99.6926 73.7429 103.39C73.7429 107.088 75.172 110.55 77.7799 113.158L93.0442 128.42L93.1031 128.361L100.411 135.683L100.352 135.742L109.163 144.552C111.771 147.16 115.233 148.589 118.917 148.589C122.6 148.589 126.077 147.145 128.685 144.537ZM408.127 257.725L413.962 251.891L413.903 251.832L421.24 244.525L421.285 244.569L439.525 226.345C442.133 223.738 443.562 220.276 443.562 216.578C443.562 212.895 442.133 209.418 439.525 206.81L421.285 188.587L421.24 188.631L413.903 181.324L413.962 181.265L408.127 175.431C405.519 172.823 402.057 171.379 398.359 171.379C394.661 171.379 391.213 172.823 388.605 175.416L379.794 184.226L379.853 184.285L372.545 191.607L372.486 191.548L357.222 206.81C354.614 209.418 353.185 212.88 353.185 216.578C353.185 220.276 354.614 223.738 357.222 226.345L372.486 241.608L372.545 241.549L379.853 248.871L379.794 248.93L388.605 257.739C391.213 260.347 394.675 261.776 398.359 261.776C402.042 261.776 405.519 260.332 408.127 257.725ZM198.553 200.166L204.388 194.332L204.329 194.273L211.666 186.966L211.71 187.01L229.951 168.787C232.559 166.179 233.988 162.717 233.988 159.019C233.988 155.336 232.559 151.859 229.951 149.252L211.71 131.028L211.666 131.072L204.329 123.765L204.388 123.706L198.553 117.872C195.945 115.265 192.483 113.821 188.785 113.821C185.086 113.821 181.639 115.265 179.031 117.857L170.22 126.667L170.279 126.726L162.971 134.048L162.912 133.989L147.648 149.252C145.04 151.859 143.611 155.321 143.611 159.019C143.611 162.717 145.04 166.179 147.648 168.787L162.912 184.049L162.971 183.99L170.279 191.312L170.22 191.371L179.031 200.181C181.639 202.788 185.101 204.217 188.785 204.217C192.468 204.217 195.945 202.774 198.553 200.166ZM265.828 144.537L271.662 138.703L271.604 138.645L278.941 131.337L278.985 131.382L297.226 113.158C299.834 110.55 301.263 107.088 301.263 103.39C301.263 99.7074 299.834 96.2306 297.226 93.623L278.985 75.3993L278.941 75.4435L271.604 68.1363L271.662 68.0774L265.828 62.2435C263.22 59.6359 259.758 58.1921 256.059 58.1921C252.361 58.1921 248.913 59.6359 246.306 62.2287L237.495 71.0386L237.554 71.0975L230.246 78.4194L230.187 78.3605L214.922 93.623C212.315 96.2306 210.885 99.6926 210.885 103.39C210.885 107.088 212.315 110.55 214.922 113.158L230.187 128.42L230.246 128.361L237.554 135.683L237.495 135.742L246.306 144.552C248.913 147.16 252.376 148.589 256.059 148.589C259.743 148.589 263.22 147.145 265.828 144.537ZM54.9572 200.166L60.7918 194.332L60.7329 194.273L68.0703 186.966L68.1145 187.01L86.355 168.787C88.9629 166.179 90.3921 162.717 90.3921 159.019C90.3921 155.336 88.9629 151.859 86.355 149.252L68.1145 131.028L68.0703 131.072L60.7329 123.765L60.7918 123.706L54.9572 117.872C52.3493 115.265 48.8869 113.821 45.1887 113.821C41.4905 113.821 38.0428 115.265 35.4349 117.857L26.624 126.667L26.683 126.726L19.375 134.048L19.3161 133.989L4.05181 149.252C1.42918 151.859 0 155.321 0 159.019C0 162.717 1.42918 166.179 4.03707 168.787L19.3013 184.049L19.3603 183.99L26.6682 191.312L26.6093 191.371L35.4201 200.181C38.028 202.788 41.4905 204.217 45.1739 204.217C48.8574 204.217 52.3346 202.774 54.9425 200.166H54.9572ZM615.771 314.002L621.606 308.168L621.547 308.109L628.884 300.802L628.929 300.846L647.169 282.622C649.777 280.014 651.206 276.552 651.206 272.855C651.206 269.172 649.777 265.695 647.169 263.087L628.929 244.864L628.884 244.908L621.547 237.601L621.606 237.542L615.771 231.708C613.163 229.1 609.701 227.656 606.003 227.656C602.305 227.656 598.857 229.1 596.249 231.693L587.438 240.503L587.497 240.562L580.189 247.884L580.13 247.825L564.866 263.087C562.258 265.695 560.829 269.157 560.829 272.855C560.829 276.552 562.258 280.014 564.866 282.622L580.13 297.885L580.189 297.826L587.497 305.148L587.438 305.207L596.249 314.016C598.857 316.624 602.319 318.053 606.003 318.053C609.686 318.053 613.163 316.609 615.771 314.002ZM545.918 709.178L551.753 703.344L551.694 703.285L559.031 695.978L559.075 696.022L577.316 677.798C579.924 675.19 581.353 671.728 581.353 668.031C581.353 664.348 579.924 660.871 577.316 658.263L559.075 640.039L559.031 640.084L551.694 632.776L551.753 632.718L545.918 626.884C543.31 624.276 539.848 622.832 536.15 622.832C532.451 622.832 529.004 624.276 526.396 626.869L517.585 635.679L517.644 635.738L510.336 643.06L510.277 643.001L495.013 658.263C492.405 660.871 490.976 664.333 490.976 668.031C490.976 671.728 492.405 675.19 495.013 677.798L510.277 693.061L510.336 693.002L517.644 700.324L517.585 700.383L526.396 709.192C529.004 711.8 532.466 713.229 536.15 713.229C539.833 713.229 543.31 711.785 545.918 709.178ZM545.918 821.717L551.753 815.883L551.694 815.824L559.031 808.517L559.075 808.561L577.316 790.337C579.924 787.73 581.353 784.268 581.353 780.57C581.353 776.887 579.924 773.41 577.316 770.802L559.075 752.579L559.031 752.623L551.694 745.316L551.753 745.257L545.918 739.423C543.31 736.815 539.848 735.371 536.15 735.371C532.451 735.371 529.004 736.815 526.396 739.408L517.585 748.218L517.644 748.277L510.336 755.599L510.277 755.54L495.013 770.802C492.405 773.41 490.976 776.872 490.976 780.57C490.976 784.268 492.405 787.73 495.013 790.337L510.277 805.6L510.336 805.541L517.644 812.863L517.585 812.922L526.396 821.732C529.004 824.339 532.466 825.768 536.15 825.768C539.833 825.768 543.31 824.324 545.918 821.717ZM476.699 314.002L482.533 308.168L482.474 308.109L489.812 300.802L489.856 300.846L508.096 282.622C510.704 280.014 512.133 276.552 512.133 272.855C512.133 269.172 510.704 265.695 508.096 263.087L489.856 244.864L489.812 244.908L482.474 237.601L482.533 237.542L476.699 231.708C474.091 229.1 470.628 227.656 466.93 227.656C463.232 227.656 459.784 229.1 457.176 231.693L448.365 240.503L448.424 240.562L441.116 247.884L441.057 247.825L425.793 263.087C423.185 265.695 421.756 269.157 421.756 272.855C421.756 276.552 423.185 280.014 425.793 282.622L441.057 297.885L441.116 297.826L448.424 305.148L448.365 305.207L457.176 314.016C459.784 316.624 463.247 318.053 466.93 318.053C470.613 318.053 474.091 316.609 476.699 314.002ZM266.476 483.451L272.311 477.617L272.252 477.558L279.589 470.251L279.633 470.295L297.874 452.072C300.482 449.464 301.911 446.002 301.911 442.304C301.911 438.621 300.482 435.144 297.874 432.537L279.633 414.313L279.589 414.357L272.252 407.05L272.311 406.991L266.476 401.157C263.868 398.55 260.406 397.106 256.708 397.106C253.009 397.106 249.562 398.55 246.954 401.142L238.143 409.952L238.202 410.011L230.894 417.333L230.835 417.274L215.571 432.537C212.963 435.144 211.534 438.606 211.534 442.304C211.534 446.002 212.963 449.464 215.571 452.072L230.835 467.334L230.894 467.275L238.202 474.597L238.143 474.656L246.954 483.466C249.562 486.074 253.024 487.503 256.708 487.503C260.391 487.503 263.868 486.059 266.476 483.451ZM155 618.81L160.835 612.976L160.776 612.918L168.113 605.61L168.157 605.655L186.398 587.431C189.006 584.823 190.435 581.361 190.435 577.663C190.435 573.98 189.006 570.504 186.398 567.896L168.157 549.672L168.113 549.717L160.776 542.409L160.835 542.35L155 536.516C152.392 533.909 148.93 532.465 145.231 532.465C141.533 532.465 138.086 533.909 135.478 536.502L126.667 545.312L126.726 545.371L119.418 552.692L119.359 552.633L104.095 567.896C101.487 570.504 100.057 573.966 100.057 577.663C100.057 581.361 101.487 584.823 104.095 587.431L119.359 602.693L119.418 602.634L126.726 609.956L126.667 610.015L135.478 618.825C138.086 621.433 141.548 622.862 145.231 622.862C148.915 622.862 152.392 621.418 155 618.81ZM163.796 483.451L169.631 477.617L169.572 477.558L176.909 470.251L176.953 470.295L195.194 452.072C197.802 449.464 199.231 446.002 199.231 442.304C199.231 438.621 197.802 435.144 195.194 432.537L176.953 414.313L176.909 414.357L169.572 407.05L169.631 406.991L163.796 401.157C161.188 398.55 157.726 397.106 154.028 397.106C150.329 397.106 146.882 398.55 144.274 401.142L135.463 409.952L135.522 410.011L128.214 417.333L128.155 417.274L112.891 432.537C110.283 435.144 108.854 438.606 108.854 442.304C108.854 446.002 110.283 449.464 112.891 452.072L128.155 467.334L128.214 467.275L135.522 474.597L135.463 474.656L144.274 483.466C146.882 486.074 150.344 487.503 154.028 487.503C157.711 487.503 161.188 486.059 163.796 483.451ZM128.7 370.588L134.535 364.754L134.476 364.695L141.813 357.388L141.857 357.432L160.098 339.208C162.706 336.601 164.135 333.139 164.135 329.441C164.135 325.758 162.706 322.281 160.098 319.674L141.857 301.45L141.813 301.494L134.476 294.187L134.535 294.128L128.7 288.294C126.092 285.686 122.63 284.243 118.932 284.243C115.233 284.243 111.786 285.686 109.178 288.279L100.367 297.089L100.426 297.148L93.1179 304.47L93.0589 304.411L77.7947 319.674C75.1868 322.281 73.7576 325.743 73.7576 329.441C73.7576 333.139 75.1868 336.601 77.7947 339.208L93.0589 354.471L93.1179 354.412L100.426 361.734L100.367 361.793L109.178 370.603C111.786 373.21 115.248 374.639 118.932 374.639C122.615 374.639 126.092 373.196 128.7 370.588ZM408.142 483.451L413.977 477.617L413.918 477.558L421.255 470.251L421.299 470.295L439.54 452.072C442.148 449.464 443.577 446.002 443.577 442.304C443.577 438.621 442.148 435.144 439.54 432.537L421.299 414.313L421.255 414.357L413.918 407.05L413.977 406.991L408.142 401.157C405.534 398.55 402.072 397.106 398.373 397.106C394.675 397.106 391.228 398.55 388.62 401.142L379.809 409.952L379.868 410.011L372.56 417.333L372.501 417.274L357.237 432.537C354.629 435.144 353.2 438.606 353.2 442.304C353.2 446.002 354.629 449.464 357.237 452.072L372.501 467.334L372.56 467.275L379.868 474.597L379.809 474.656L388.62 483.466C391.228 486.074 394.69 487.503 398.373 487.503C402.057 487.503 405.534 486.059 408.142 483.451ZM198.568 314.002L204.403 308.168L204.344 308.109L211.681 300.802L211.725 300.846L229.966 282.622C232.574 280.014 234.003 276.552 234.003 272.855C234.003 269.172 232.574 265.695 229.966 263.087L211.725 244.864L211.681 244.908L204.344 237.601L204.403 237.542L198.568 231.708C195.96 229.1 192.498 227.656 188.799 227.656C185.101 227.656 181.653 229.1 179.046 231.693L170.235 240.503L170.294 240.562L162.986 247.884L162.927 247.825L147.663 263.087C145.055 265.695 143.625 269.157 143.625 272.855C143.625 276.552 145.055 280.014 147.663 282.622L162.927 297.885L162.986 297.826L170.294 305.148L170.235 305.207L179.046 314.016C181.653 316.624 185.116 318.053 188.799 318.053C192.483 318.053 195.96 316.609 198.568 314.002ZM265.843 370.588L271.677 364.754L271.618 364.695L278.956 357.388L279 357.432L297.24 339.208C299.848 336.601 301.277 333.139 301.277 329.441C301.277 325.758 299.848 322.281 297.24 319.674L279 301.45L278.956 301.494L271.618 294.187L271.677 294.128L265.843 288.294C263.235 285.686 259.772 284.243 256.074 284.243C252.376 284.243 248.928 285.686 246.32 288.279L237.509 297.089L237.568 297.148L230.26 304.47L230.201 304.411L214.937 319.674C212.329 322.281 210.9 325.743 210.9 329.441C210.9 333.139 212.329 336.601 214.937 339.208L230.201 354.471L230.26 354.412L237.568 361.734L237.509 361.793L246.32 370.603C248.928 373.21 252.391 374.639 256.074 374.639C259.758 374.639 263.235 373.196 265.843 370.588ZM407.184 370.588L413.019 364.754L412.96 364.695L420.297 357.388L420.342 357.432L438.582 339.208C441.19 336.601 442.619 333.139 442.619 329.441C442.619 325.758 441.19 322.281 438.582 319.674L420.342 301.45L420.297 301.494L412.96 294.187L413.019 294.128L407.184 288.294C404.576 285.686 401.114 284.243 397.416 284.243C393.718 284.243 390.27 285.686 387.662 288.279L378.851 297.089L378.91 297.148L371.602 304.47L371.543 304.411L356.279 319.674C353.671 322.281 352.242 325.743 352.242 329.441C352.242 333.139 353.671 336.601 356.279 339.208L371.543 354.471L371.602 354.412L378.91 361.734L378.851 361.793L387.662 370.603C390.27 373.21 393.732 374.639 397.416 374.639C401.099 374.639 404.576 373.196 407.184 370.588ZM54.9719 314.002L60.8065 308.168L60.7476 308.109L68.0851 300.802L68.1293 300.846L86.3698 282.622C88.9776 280.014 90.4068 276.552 90.4068 272.855C90.4068 269.172 88.9776 265.695 86.3698 263.087L68.1293 244.864L68.0851 244.908L60.7476 237.601L60.8065 237.542L54.9719 231.708C52.3641 229.1 48.9016 227.656 45.2034 227.656C41.5052 227.656 38.0575 229.1 35.4496 231.693L26.6388 240.503L26.6977 240.562L19.3897 247.884L19.3308 247.825L4.06654 263.087C1.42918 265.695 0 269.157 0 272.855C0 276.552 1.42918 280.014 4.03707 282.622L19.3013 297.885L19.3603 297.826L26.6682 305.148L26.6093 305.207L35.4201 314.016C38.028 316.624 41.4905 318.053 45.1739 318.053C48.8574 318.053 52.3346 316.609 54.9425 314.002H54.9719ZM337.641 427.189L343.475 421.355L343.416 421.296L350.754 413.989L350.798 414.033L369.038 395.809C371.646 393.202 373.076 389.74 373.076 386.042C373.076 382.359 371.646 378.882 369.038 376.275L350.798 358.051L350.754 358.095L343.416 350.788L343.475 350.729L337.641 344.895C335.033 342.287 331.57 340.844 327.872 340.844C324.174 340.844 320.726 342.287 318.118 344.88L309.307 353.69L309.366 353.749L302.058 361.071L301.999 361.012L286.735 376.275C284.127 378.882 282.698 382.344 282.698 386.042C282.698 389.74 284.127 393.202 286.735 395.809L301.999 411.072L302.058 411.013L309.366 418.335L309.307 418.394L318.118 427.204C320.726 429.811 324.189 431.24 327.872 431.24C331.556 431.24 335.033 429.797 337.641 427.189ZM54.9719 427.189L60.8065 421.355L60.7476 421.296L68.0851 413.989L68.1293 414.033L86.3698 395.809C88.9776 393.202 90.4068 389.74 90.4068 386.042C90.4068 382.359 88.9776 378.882 86.3698 376.275L68.1293 358.051L68.0851 358.095L60.7476 350.788L60.8065 350.729L54.9719 344.895C52.3641 342.287 48.9016 340.844 45.2034 340.844C41.5052 340.844 38.0575 342.287 35.4496 344.88L26.6388 353.69L26.6977 353.749L19.3897 361.071L19.3308 361.012L4.06654 376.275C1.42918 378.882 0 382.344 0 386.042C0 389.74 1.42918 393.202 4.03707 395.809L19.3013 411.072L19.3603 411.013L26.6682 418.335L26.6093 418.394L35.4201 427.204C38.028 429.811 41.4905 431.24 45.1739 431.24C48.8574 431.24 52.3346 429.797 54.9425 427.189H54.9719ZM476.713 539.08L482.548 533.246L482.489 533.187L489.826 525.88L489.871 525.924L508.111 507.7C510.719 505.093 512.148 501.631 512.148 497.933C512.148 494.25 510.719 490.773 508.111 488.165L489.871 469.942L489.826 469.986L482.489 462.679L482.548 462.62L476.713 456.786C474.105 454.178 470.643 452.735 466.945 452.735C463.247 452.735 459.799 454.178 457.191 456.771L448.38 465.581L448.439 465.64L441.131 472.962L441.072 472.903L425.808 488.165C423.2 490.773 421.771 494.235 421.771 497.933C421.771 501.631 423.2 505.093 425.808 507.7L441.072 522.963L441.131 522.904L448.439 530.226L448.38 530.285L457.191 539.095C459.799 541.702 463.261 543.131 466.945 543.131C470.628 543.131 474.105 541.688 476.713 539.08ZM337.641 539.08L343.475 533.246L343.416 533.187L350.754 525.88L350.798 525.924L369.038 507.7C371.646 505.093 373.076 501.631 373.076 497.933C373.076 494.25 371.646 490.773 369.038 488.165L350.798 469.942L350.754 469.986L343.416 462.679L343.475 462.62L337.641 456.786C335.033 454.178 331.57 452.735 327.872 452.735C324.174 452.735 320.726 454.178 318.118 456.771L309.307 465.581L309.366 465.64L302.058 472.962L301.999 472.903L286.735 488.165C284.127 490.773 282.698 494.235 282.698 497.933C282.698 501.631 284.127 505.093 286.735 507.7L301.999 522.963L302.058 522.904L309.366 530.226L309.307 530.285L318.118 539.095C320.726 541.702 324.189 543.131 327.872 543.131C331.556 543.131 335.033 541.688 337.641 539.08ZM54.9719 539.08L60.8065 533.246L60.7476 533.187L68.0851 525.88L68.1293 525.924L86.3698 507.7C88.9776 505.093 90.4068 501.631 90.4068 497.933C90.4068 494.25 88.9776 490.773 86.3698 488.165L68.1293 469.942L68.0851 469.986L60.7476 462.679L60.8065 462.62L54.9719 456.786C52.3641 454.178 48.9016 452.735 45.2034 452.735C41.5052 452.735 38.0575 454.178 35.4496 456.771L26.6388 465.581L26.6977 465.64L19.3897 472.962L19.3308 472.903L4.06654 488.165C1.42918 490.773 0 494.235 0 497.933C0 501.631 1.42918 505.093 4.03707 507.7L19.3013 522.963L19.3603 522.904L26.6682 530.226L26.6093 530.285L35.4201 539.095C38.028 541.702 41.4905 543.131 45.1739 543.131C48.8574 543.131 52.3346 541.688 54.9425 539.08H54.9719ZM476.713 766.103L482.548 760.269L482.489 760.21L489.826 752.903L489.871 752.947L508.111 734.723C510.719 732.116 512.148 728.654 512.148 724.956C512.148 721.273 510.719 717.796 508.111 715.188L489.871 696.965L489.826 697.009L482.489 689.702L482.548 689.643L476.713 683.809C474.105 681.201 470.643 679.757 466.945 679.757C463.247 679.757 459.799 681.201 457.191 683.794L448.38 692.604L448.439 692.663L441.131 699.985L441.072 699.926L425.808 715.188C423.2 717.796 421.771 721.258 421.771 724.956C421.771 728.654 423.2 732.116 425.808 734.723L441.072 749.986L441.131 749.927L448.439 757.249L448.38 757.308L457.191 766.117C459.799 768.725 463.261 770.154 466.945 770.154C470.628 770.154 474.105 768.71 476.713 766.103ZM476.713 652.915L482.548 647.081L482.489 647.023L489.826 639.715L489.871 639.76L508.111 621.536C510.719 618.928 512.148 615.466 512.148 611.768C512.148 608.085 510.719 604.609 508.111 602.001L489.871 583.777L489.826 583.822L482.489 576.514L482.548 576.455L476.713 570.621C474.105 568.014 470.643 566.57 466.945 566.57C463.247 566.57 459.799 568.014 457.191 570.607L448.38 579.417L448.439 579.476L441.131 586.797L441.072 586.738L425.808 602.001C423.2 604.609 421.771 608.071 421.771 611.768C421.771 615.466 423.2 618.928 425.808 621.536L441.072 636.798L441.131 636.74L448.439 644.061L448.38 644.12L457.191 652.93C459.799 655.538 463.261 656.967 466.945 656.967C470.628 656.967 474.105 655.523 476.713 652.915ZM337.641 652.915L343.475 647.081L343.416 647.023L350.754 639.715L350.798 639.76L369.038 621.536C371.646 618.928 373.076 615.466 373.076 611.768C373.076 608.085 371.646 604.609 369.038 602.001L350.798 583.777L350.754 583.822L343.416 576.514L343.475 576.455L337.641 570.621C335.033 568.014 331.57 566.57 327.872 566.57C324.174 566.57 320.726 568.014 318.118 570.607L309.307 579.417L309.366 579.476L302.058 586.797L301.999 586.738L286.735 602.001C284.127 604.609 282.698 608.071 282.698 611.768C282.698 615.466 284.127 618.928 286.735 621.536L301.999 636.798L302.058 636.74L309.366 644.061L309.307 644.12L318.118 652.93C320.726 655.538 324.189 656.967 327.872 656.967C331.556 656.967 335.033 655.523 337.641 652.915ZM54.9719 652.915L60.8065 647.081L60.7476 647.023L68.0851 639.715L68.1293 639.76L86.3698 621.536C88.9776 618.928 90.4068 615.466 90.4068 611.768C90.4068 608.085 88.9776 604.609 86.3698 602.001L68.1293 583.777L68.0851 583.822L60.7476 576.514L60.8065 576.455L54.9719 570.621C52.3641 568.014 48.9016 566.57 45.2034 566.57C41.5052 566.57 38.0575 568.014 35.4496 570.607L26.6388 579.417L26.6977 579.476L19.3897 586.797L19.3308 586.738L4.06654 602.001C1.42918 604.609 0 608.071 0 611.754C0 615.451 1.42918 618.914 4.03707 621.521L19.3013 636.784L19.3603 636.725L26.6682 644.047L26.6093 644.106L35.4201 652.915C38.028 655.523 41.4905 656.952 45.1739 656.952C48.8574 656.952 52.3346 655.508 54.9425 652.901L54.9719 652.915ZM337.641 766.103L343.475 760.269L343.416 760.21L350.754 752.903L350.798 752.947L369.038 734.723C371.646 732.116 373.076 728.654 373.076 724.956C373.076 721.273 371.646 717.796 369.038 715.188L350.798 696.965L350.754 697.009L343.416 689.702L343.475 689.643L337.641 683.809C335.033 681.201 331.57 679.757 327.872 679.757C324.189 679.757 320.726 681.201 318.118 683.794L309.307 692.604L309.366 692.663L302.058 699.985L301.999 699.926L286.735 715.188C284.127 717.796 282.698 721.258 282.698 724.956C282.698 728.654 284.127 732.116 286.735 734.723L301.999 749.986L302.058 749.927L309.366 757.249L309.307 757.308L318.118 766.117C320.726 768.725 324.189 770.154 327.872 770.154C331.556 770.154 335.033 768.71 337.641 766.103ZM54.9719 766.103L60.8065 760.269L60.7476 760.21L68.0851 752.903L68.1293 752.947L86.3698 734.723C88.9776 732.116 90.4068 728.654 90.4068 724.956C90.4068 721.273 88.9776 717.796 86.3698 715.188L68.1293 696.965L68.0851 697.009L60.7476 689.702L60.8065 689.643L54.9719 683.809C52.3641 681.201 48.9016 679.757 45.2034 679.757C41.5052 679.757 38.0575 681.201 35.4496 683.794L26.6388 692.604L26.6977 692.663L19.3897 699.985L19.3308 699.926L4.06654 715.188C1.42918 717.781 0 721.258 0 724.941C0 728.639 1.42918 732.101 4.03707 734.708L19.3013 749.971L19.3603 749.912L26.6682 757.234L26.6093 757.293L35.4201 766.103C38.028 768.71 41.4905 770.139 45.1739 770.139C48.8574 770.139 52.3346 768.696 54.9425 766.088L54.9719 766.103ZM337.641 877.345L343.475 871.511L343.416 871.453L350.754 864.145L350.798 864.19L369.038 845.966C371.646 843.358 373.076 839.896 373.076 836.198C373.076 832.515 371.646 829.039 369.038 826.431L350.798 808.207L350.754 808.252L343.416 800.944L343.475 800.885L337.641 795.051C335.033 792.444 331.57 791 327.872 791C324.174 791 320.726 792.444 318.118 795.037L309.307 803.847L309.366 803.906L302.058 811.227L301.999 811.168L286.735 826.431C284.127 829.039 282.698 832.501 282.698 836.198C282.698 839.896 284.127 843.358 286.735 845.966L301.999 861.228L302.058 861.169L309.366 868.491L309.307 868.55L318.118 877.36C320.726 879.968 324.189 881.397 327.872 881.397C331.556 881.397 335.033 879.953 337.641 877.345ZM198.568 877.345L204.403 871.511L204.344 871.453L211.681 864.145L211.725 864.19L229.966 845.966C232.574 843.358 234.003 839.896 234.003 836.198C234.003 832.515 232.574 829.039 229.966 826.431L211.725 808.207L211.681 808.252L204.344 800.944L204.403 800.885L198.568 795.051C195.96 792.444 192.498 791 188.799 791C185.116 791 181.653 792.444 179.046 795.037L170.235 803.847L170.294 803.906L162.986 811.227L162.927 811.168L147.663 826.431C145.055 829.039 143.625 832.501 143.625 836.198C143.625 839.896 145.055 843.358 147.663 845.966L162.927 861.228L162.986 861.169L170.294 868.491L170.235 868.55L179.046 877.36C181.653 879.968 185.116 881.397 188.799 881.397C192.483 881.397 195.96 879.953 198.568 877.345ZM337.641 990.533L343.475 984.699L343.416 984.64L350.754 977.333L350.798 977.377L369.038 959.153C371.646 956.546 373.076 953.084 373.076 949.386C373.076 945.703 371.646 942.226 369.038 939.618L350.798 921.395L350.754 921.439L343.416 914.132L343.475 914.073L337.641 908.239C335.033 905.631 331.57 904.187 327.872 904.187C324.189 904.187 320.726 905.631 318.118 908.224L309.307 917.034L309.366 917.093L302.058 924.415L301.999 924.356L286.735 939.618C284.127 942.226 282.698 945.688 282.698 949.386C282.698 953.084 284.127 956.546 286.735 959.153L301.999 974.416L302.058 974.357L309.366 981.679L309.307 981.738L318.118 990.547C320.726 993.155 324.189 994.584 327.872 994.584C331.556 994.584 335.033 993.14 337.641 990.533ZM198.568 990.533L204.403 984.699L204.344 984.64L211.681 977.333L211.725 977.377L229.966 959.153C232.574 956.546 234.003 953.084 234.003 949.386C234.003 945.703 232.574 942.226 229.966 939.618L211.725 921.395L211.681 921.439L204.344 914.132L204.403 914.073L198.568 908.239C195.96 905.631 192.498 904.187 188.799 904.187C185.101 904.187 181.653 905.631 179.046 908.224L170.235 917.034L170.294 917.093L162.986 924.415L162.927 924.356L147.663 939.618C145.055 942.226 143.625 945.688 143.625 949.386C143.625 953.084 145.055 956.546 147.663 959.153L162.927 974.416L162.986 974.357L170.294 981.679L170.235 981.738L179.046 990.547C181.653 993.155 185.116 994.584 188.799 994.584C192.483 994.584 195.96 993.14 198.568 990.533ZM266.491 596.005L272.326 590.171L272.267 590.112L279.604 582.805L279.648 582.849L297.889 564.625C300.497 562.018 301.926 558.556 301.926 554.858C301.926 551.175 300.497 547.698 297.889 545.091L279.648 526.867L279.604 526.911L272.267 519.604L272.326 519.545L266.491 513.711C263.883 511.103 260.421 509.66 256.722 509.66C253.024 509.66 249.576 511.103 246.969 513.696L238.158 522.506L238.217 522.565L230.909 529.887L230.85 529.828L215.586 545.091C212.978 547.698 211.548 551.16 211.548 554.858C211.548 558.556 212.978 562.018 215.586 564.625L230.85 579.888L230.909 579.829L238.217 587.151L238.158 587.21L246.969 596.02C249.576 598.627 253.039 600.056 256.722 600.056C260.406 600.056 263.883 598.613 266.491 596.005ZM408.157 596.005L413.991 590.171L413.932 590.112L421.27 582.805L421.314 582.849L439.555 564.625C442.162 562.018 443.592 558.556 443.592 554.858C443.592 551.175 442.162 547.698 439.555 545.091L421.314 526.867L421.27 526.911L413.932 519.604L413.991 519.545L408.157 513.711C405.549 511.103 402.086 509.66 398.388 509.66C394.69 509.66 391.242 511.103 388.634 513.696L379.824 522.506L379.882 522.565L372.575 529.887L372.516 529.828L357.251 545.091C354.643 547.698 353.214 551.16 353.214 554.858C353.214 558.556 354.643 562.018 357.251 564.625L372.516 579.888L372.575 579.829L379.882 587.151L379.824 587.21L388.634 596.02C391.242 598.627 394.705 600.056 398.388 600.056C402.072 600.056 405.549 598.613 408.157 596.005ZM266.491 709.192L272.326 703.358L272.267 703.299L279.604 695.992L279.648 696.036L297.889 677.813C300.497 675.205 301.926 671.743 301.926 668.045C301.926 664.362 300.497 660.885 297.889 658.278L279.648 640.054L279.604 640.098L272.267 632.791L272.326 632.732L266.491 626.898C263.883 624.291 260.421 622.847 256.722 622.847C253.039 622.847 249.576 624.291 246.969 626.884L238.158 635.693L238.217 635.752L230.909 643.074L230.85 643.015L215.586 658.278C212.978 660.885 211.548 664.348 211.548 668.045C211.548 671.743 212.978 675.205 215.586 677.813L230.85 693.075L230.909 693.016L238.217 700.338L238.158 700.397L246.969 709.207C249.576 711.815 253.039 713.244 256.722 713.244C260.406 713.244 263.883 711.8 266.491 709.192ZM266.491 821.732L272.326 815.898L272.267 815.839L279.604 808.531L279.648 808.576L297.889 790.352C300.497 787.744 301.926 784.282 301.926 780.584C301.926 776.901 300.497 773.425 297.889 770.817L279.648 752.593L279.604 752.638L272.267 745.33L272.326 745.271L266.491 739.438C263.883 736.83 260.421 735.386 256.722 735.386C253.024 735.386 249.576 736.83 246.969 739.423L238.158 748.233L238.217 748.292L230.909 755.613L230.85 755.555L215.586 770.817C212.978 773.425 211.548 776.887 211.548 780.584C211.548 784.282 212.978 787.744 215.586 790.352L230.85 805.615L230.909 805.555L238.217 812.877L238.158 812.936L246.969 821.746C249.576 824.354 253.039 825.783 256.722 825.783C260.406 825.783 263.883 824.339 266.491 821.732ZM128.715 821.732L134.549 815.898L134.49 815.839L141.828 808.531L141.872 808.576L160.113 790.352C162.72 787.744 164.15 784.282 164.15 780.584C164.15 776.901 162.72 773.425 160.113 770.817L141.872 752.593L141.828 752.638L134.49 745.33L134.549 745.271L128.715 739.438C126.107 736.83 122.644 735.386 118.946 735.386C115.248 735.386 111.8 736.83 109.192 739.423L100.382 748.233L100.441 748.292L93.1326 755.613L93.0736 755.555L77.8094 770.817C75.2015 773.425 73.7723 776.887 73.7723 780.584C73.7723 784.282 75.2015 787.744 77.8094 790.352L93.0736 805.615L93.1326 805.555L100.441 812.877L100.382 812.936L109.192 821.746C111.8 824.354 115.263 825.783 118.946 825.783C122.63 825.783 126.107 824.339 128.715 821.732ZM266.491 934.919L272.326 929.085L272.267 929.026L279.604 921.719L279.648 921.763L297.889 903.539C300.497 900.932 301.926 897.47 301.926 893.772C301.926 890.089 300.497 886.612 297.889 884.004L279.648 865.781L279.604 865.825L272.267 858.518L272.326 858.459L266.491 852.625C263.883 850.017 260.421 848.573 256.722 848.573C253.024 848.573 249.576 850.017 246.969 852.61L238.158 861.42L238.217 861.479L230.909 868.801L230.85 868.742L215.586 884.004C212.978 886.612 211.548 890.074 211.548 893.772C211.548 897.47 212.978 900.932 215.586 903.539L230.85 918.802L230.909 918.743L238.217 926.065L238.158 926.124L246.969 934.933C249.576 937.541 253.039 938.97 256.722 938.97C260.406 938.97 263.883 937.526 266.491 934.919ZM128.715 934.919L134.549 929.085L134.49 929.026L141.828 921.719L141.872 921.763L160.113 903.539C162.72 900.932 164.15 897.47 164.15 893.772C164.15 890.089 162.72 886.612 160.113 884.004L141.872 865.781L141.828 865.825L134.49 858.518L134.549 858.459L128.715 852.625C126.107 850.017 122.644 848.573 118.946 848.573C115.248 848.573 111.8 850.017 109.192 852.61L100.382 861.42L100.441 861.479L93.1326 868.801L93.0736 868.742L77.8094 884.004C75.2015 886.612 73.7723 890.074 73.7723 893.772C73.7723 897.47 75.2015 900.932 77.8094 903.539L93.0736 918.802L93.1326 918.743L100.441 926.065L100.382 926.124L109.192 934.933C111.8 937.541 115.263 938.97 118.946 938.97C122.63 938.97 126.107 937.526 128.715 934.919ZM128.715 1047.46L134.549 1041.62L134.49 1041.57L141.828 1034.26L141.872 1034.3L160.113 1016.08C162.72 1013.47 164.15 1010.01 164.15 1006.31C164.15 1002.63 162.72 999.151 160.113 996.543L141.872 978.32L141.828 978.364L134.49 971.057L134.549 970.998L128.715 965.164C126.107 962.556 122.644 961.113 118.946 961.113C115.248 961.113 111.8 962.556 109.192 965.149L100.382 973.959L100.441 974.018L93.1326 981.34L93.0736 981.281L77.8094 996.543C75.2015 999.151 73.7723 1002.61 73.7723 1006.31C73.7723 1010.01 75.2015 1013.47 77.8094 1016.08L93.0736 1031.34L93.1326 1031.28L100.441 1038.6L100.382 1038.66L109.192 1047.47C111.8 1050.08 115.263 1051.51 118.946 1051.51C122.63 1051.51 126.107 1050.07 128.715 1047.46Z" fill="url(#paint0_linear_274_3)"/>
<defs>
<linearGradient id="paint0_linear_274_3" x1="325.588" y1="0" x2="325.588" y2="1051.48" gradientUnits="userSpaceOnUse">
<stop stop-color="#4EB1A4"/>
<stop offset="0.26" stop-color="#3EA9A5"/>
<stop offset="0.76" stop-color="#1695A8"/>
<stop offset="1" stop-color="#018AAA"/>
</linearGradient>
</defs>
</svg>
